<svg xmlns="http://www.w3.org/2000/svg" version="1.1" xmlns:xlink="http://www.w3.org/1999/xlink" xmlns:svgjs="http://svgjs.com/svgjs" width="2560" height="1440" preserveAspectRatio="none" viewBox="0 0 2560 1440"><g mask="url(&quot;#SvgjsMask1099&quot;)" fill="none"><rect width="2560" height="1440" x="0" y="0" fill="rgba(49, 96, 144, 1)"></rect><path d="M140 1440L1580 0L2319.5 0L879.5 1440z" fill="url(#SvgjsLinearGradient1100)"></path><path d="M890.8000000000001 1440L2330.8 0L2797.3 0L1357.3000000000002 1440z" fill="url(#SvgjsLinearGradient1100)"></path><path d="M2491 1440L1051 0L275.5 0L1715.5 1440z" fill="url(#SvgjsLinearGradient1101)"></path><path d="M1672.1999999999998 1440L232.19999999999982 0L-42.30000000000018 0L1397.6999999999998 1440z" fill="url(#SvgjsLinearGradient1101)"></path><path d="M1153.8954334080127 1440L2560 33.89543340801265L2560 1440z" fill="url(#SvgjsLinearGradient1100)"></path><path d="M0 1440L1406.1045665919873 1440L 0 33.89543340801265z" fill="url(#SvgjsLinearGradient1101)"></path></g><defs><mask id="SvgjsMask1099"><rect width="2560" height="1440" fill="#ffffff"></rect></mask><linearGradient x1="0%" y1="100%" x2="100%" y2="0%" id="SvgjsLinearGradient1100"><stop stop-color="rgba(36, 207, 227, 1)" offset="0"></stop><stop stop-opacity="0" stop-color="rgba(36, 207, 227, 1)" offset="0.66"></stop></linearGradient><linearGradient x1="100%" y1="100%" x2="0%" y2="0%" id="SvgjsLinearGradient1101"><stop stop-color="rgba(36, 207, 227, 1)" offset="0"></stop><stop stop-opacity="0" stop-color="rgba(36, 207, 227, 1)" offset="0.66"></stop></linearGradient></defs></svg>