<svg xmlns="http://www.w3.org/2000/svg" version="1.1" xmlns:xlink="http://www.w3.org/1999/xlink" xmlns:svgjs="http://svgjs.com/svgjs" width="2560" height="1440" preserveAspectRatio="none" viewBox="0 0 2560 1440"><g mask="url(&quot;#SvgjsMask1428&quot;)" fill="none"><rect width="2560" height="1440" x="0" y="0" fill="rgba(44, 62, 80, 1)"></rect><path d="M0 0L83.83 0L0 692.97z" fill="rgba(255, 255, 255, .1)"></path><path d="M0 692.97L83.83 0L1428.8999999999999 0L0 735.89z" fill="rgba(255, 255, 255, .075)"></path><path d="M0 735.89L1428.8999999999999 0L1898.54 0L0 841.72z" fill="rgba(255, 255, 255, .05)"></path><path d="M0 841.72L1898.54 0L2368.75 0L0 936.28z" fill="rgba(255, 255, 255, .025)"></path><path d="M2560 1440L2231.84 1440L2560 1345.57z" fill="rgba(0, 0, 0, .1)"></path><path d="M2560 1345.57L2231.84 1440L1737.46 1440L2560 1075.08z" fill="rgba(0, 0, 0, .075)"></path><path d="M2560 1075.08L1737.46 1440L1597.29 1440L2560 422.79999999999995z" fill="rgba(0, 0, 0, .05)"></path><path d="M2560 422.79999999999995L1597.29 1440L1283.45 1440L2560 165.80999999999995z" fill="rgba(0, 0, 0, .025)"></path></g><defs><mask id="SvgjsMask1428"><rect width="2560" height="1440" fill="#ffffff"></rect></mask></defs></svg>